<svg width="60" height="60" viewBox="0 0 60 60" fill="none" xmlns="http://www.w3.org/2000/svg">
<path d="M59.9298 20.3511L58.8882 21.0081L53.7005 24.2655L31.4773 38.2117L31.1968 38.3967L31.1366 38.4337L30.005 39.1462L29.965 39.1649L29.0336 38.5819L28.8632 38.4708L7.8116 25.2558L6.37957 24.3581L0.0700781 20.3973L0 20.3511L6.37957 16.344L29.2439 1.99078H30.686L53.7005 16.4365L54.4617 16.9178L59.9298 20.3511Z" fill="#C0874A"/>
<path d="M54.8272 1.88262V46.8664C54.8272 47.8985 53.9038 48.7397 52.7599 48.7397H7.29962C6.1663 48.7397 5.24286 47.8985 5.24286 46.8664V1.88262C5.24286 0.840938 6.1663 0 7.29962 0H52.7599C53.9037 0 54.8272 0.840938 54.8272 1.88262Z" fill="#69B25F"/>
<path d="M35.308 8.8009H12.9828V11.7749H35.308V8.8009Z" fill="#A2CC86"/>
<path d="M35.308 8.33124H12.9828V11.3052H35.308V8.33124Z" fill="#53A654"/>
<path d="M46.9087 25.158H12.9828V28.132H46.9087V25.158Z" fill="#A2CC86"/>
<path d="M46.9087 24.6885H12.9828V27.6625H46.9087V24.6885Z" fill="#53A654"/>
<path d="M46.9087 33.3367H12.9828V36.3107H46.9087V33.3367Z" fill="#A2CC86"/>
<path d="M46.9087 32.8671H12.9828V35.8411H46.9087V32.8671Z" fill="#53A654"/>
<path d="M46.9087 16.9794H12.9828V19.9534H46.9087V16.9794Z" fill="#A2CC86"/>
<path d="M46.9087 16.5099H12.9828V19.4839H46.9087V16.5099Z" fill="#53A654"/>
<path d="M30.035 37.7482L29.6845 37.9548L22.9043 41.9135L22.073 42.4039L1.45218 54.4433L0.0700684 55.2437V20.2528L8.37257 25.0979L28.9033 37.0856L29.0635 37.1803L30.005 37.731L30.035 37.7482Z" fill="#F0BA7D"/>
<path d="M59.7933 19.6046C59.9069 19.5382 60 19.5916 60 19.7233V54.244C60 54.3757 59.9978 54.4815 59.995 54.479C59.9921 54.4766 59.9787 54.467 59.9648 54.4575C59.951 54.448 59.9307 54.4344 59.9197 54.4274C59.9087 54.4202 59.8975 54.4145 59.8946 54.4145C59.8918 54.4145 59.7966 54.3601 59.6829 54.2938L31.113 37.6163C30.9994 37.55 30.8135 37.4409 30.7001 37.374L30.6018 37.316C30.4883 37.2491 30.3144 37.146 30.2153 37.0868C30.1161 37.0276 30.1282 36.9252 30.2421 36.859L30.9697 36.4366C31.0836 36.3705 31.1836 36.3125 31.1918 36.3078C31.2001 36.3031 31.2136 36.2953 31.2219 36.2906C31.2302 36.2859 31.3301 36.2279 31.444 36.1617L32.0815 35.7913C32.1954 35.7252 32.3815 35.6167 32.4953 35.5502L59.7933 19.6046Z" fill="#E5A864"/>
<path opacity="0.68" d="M44.1963 13.2758C46.6678 13.2758 48.6712 11.2723 48.6712 8.80091C48.6712 6.32948 46.6678 4.32599 44.1963 4.32599C41.7249 4.32599 39.7214 6.32948 39.7214 8.80091C39.7214 11.2723 41.7249 13.2758 44.1963 13.2758Z" fill="#EEF3CA"/>
<path d="M60 49.8341V55.2022H59.9399L59.0785 55.2423H3.24479L3.20483 54.411C4.2164 53.72 5.55819 52.7885 6.4296 52.1976L6.54972 52.1175L9.47425 50.1044L14.041 46.9497L15.3629 46.0384L29.2338 36.4741L30.1651 35.823C30.3854 35.683 30.6359 35.5626 30.9062 35.4827C31.2267 35.3724 31.5772 35.3024 31.9277 35.2724C32.0478 35.2623 32.158 35.2523 32.2782 35.2623C32.3984 35.2422 32.5187 35.2422 32.6388 35.2422C32.9593 35.2323 33.2699 35.2623 33.5702 35.3223C33.8906 35.3824 34.1811 35.4827 34.4415 35.6227L44.9573 41.4716L50.1551 44.3658L51.5072 45.1169L56.4044 47.8409L59.6292 49.6337C59.7194 49.6838 59.8195 49.7339 59.9197 49.794C59.9399 49.8041 59.9699 49.8241 60 49.8341Z" fill="#C0874A"/>
<path d="M60 51.727V55.2423H0.0700684V51.727C1.12171 51.0859 2.50382 50.2147 3.40511 49.6739L3.52522 49.5937L6.53976 47.7211L11.2568 44.7967L12.6189 43.9454L26.9304 35.062L27.8918 34.4612C28.3925 34.1607 29.0435 34.0105 29.6845 34.0004C29.8046 33.9903 29.9148 33.9903 30.035 34.0004C30.1553 33.9903 30.2754 33.9903 30.3956 34.0004C30.676 34.0004 30.9465 34.0305 31.2069 34.0905C31.5675 34.1607 31.8978 34.2909 32.1784 34.4612L33.5705 35.3224L42.4037 40.8108L47.4513 43.9455L48.7634 44.7667L53.5305 47.7212L56.6651 49.6741C56.7553 49.7243 56.8454 49.7742 56.9455 49.8343C57.5865 50.2451 58.4076 50.7559 59.1789 51.2265C59.4592 51.4065 59.7396 51.5768 60 51.727Z" fill="#ECB168"/>
<path opacity="0.2" d="M54.8222 1.88273V2.38348C54.8222 1.34203 53.9007 0.500742 52.7591 0.500742H7.30088C6.16932 0.500742 5.23792 1.34191 5.23792 2.38348V1.88273C5.2378 0.841172 6.16932 0 7.30088 0H52.7592C53.9007 0 54.8222 0.841172 54.8222 1.88273Z" fill="#BADB9E"/>
</svg>
