<svg width="60" height="60" viewBox="0 0 60 60" fill="none" xmlns="http://www.w3.org/2000/svg">
<path d="M53.3819 40.914C53.3819 40.7557 53.3819 40.5977 53.3703 40.4394C53.1695 37.464 50.9622 33.8404 45.3938 33.42L45.1004 33.4006L44.9615 32.0152L45.2664 31.9496C48.9441 31.1508 50.507 28.7313 50.507 26.5048C50.507 26.3117 50.4916 26.1227 50.4722 25.9336C50.148 23.3018 47.5741 20.7046 42.5536 20.8436C42.0674 20.8552 41.6929 21.0018 41.4499 21.2759C41.2492 21.5035 41.1373 21.8277 41.1373 22.1671C41.1373 22.2136 41.1373 22.256 41.1411 22.3023L41.9053 29.8312L41.6196 29.9045C41.6082 29.9073 41.6005 29.9112 41.5927 29.914L35.1173 20.3188C34.8087 19.8209 34.5423 19.2653 34.3185 18.6749H41.3535C41.6766 18.6755 41.988 18.5543 42.2256 18.3353C43.9505 16.7377 44.7185 13.9129 44.1318 11.3003C43.3755 7.91224 40.983 5.6199 38.1851 5.5968H38.1737L13.978 5.60076C13.9394 5.60076 13.9084 5.61618 13.8699 5.6199C13.4647 5.69717 12.006 5.95952 12.006 5.95952C8.1123 7.50321 5.94366 12.6355 7.06277 17.6483C7.39844 19.1495 7.95031 20.5195 8.71061 21.7196L16.992 33.995C17.2891 34.4773 17.5438 35.0138 17.7637 35.5887H10.7248C10.4019 35.5888 10.0906 35.7099 9.8527 35.9283C8.12783 37.5259 7.36358 40.3545 7.94647 42.9631C8.70281 46.3437 11.1763 48.6822 13.9663 48.6629C13.9703 48.6629 13.974 48.6669 13.9817 48.6669H38.1697C38.162 48.6669 40.0722 48.3041 40.0722 48.3041C40.269 48.2259 40.4466 48.1081 40.6338 48.0087C41.5193 48.2586 42.4649 48.4621 43.5338 48.5625L43.8193 48.5895L44.0546 50.9281C44.0546 50.9281 40.0221 51.4026 39.8021 54.4243C42.1213 53.4672 45.0504 53.367 47.2499 54.1311C47.4081 53.7683 48.1182 52.1513 48.3458 51.6382C47.9291 51.5148 46.9373 51.2136 46.9373 51.2136L46.8911 50.9744L46.617 48.3001L46.9258 48.2346C51.433 47.2774 53.3819 43.9473 53.3819 40.914Z" fill="#27323A"/>
<path d="M37.8882 8.16309H38.1737C39.7172 8.1785 41.1411 9.69885 41.6274 11.8637C41.7163 12.265 41.7586 12.6742 41.7586 13.0792C41.7586 14.2601 41.3458 15.3407 40.7013 16.1085H32.8135C32.7633 16.1009 32.7094 16.1125 32.6592 16.1085H19.4461C19.8397 15.1708 20.0673 14.1367 20.0673 13.0638C20.0673 12.4772 20.0057 11.8831 19.8745 11.3042C19.6004 10.0732 19.0526 9.05435 18.4003 8.16681C23.8338 8.16681 35.974 8.16309 37.8882 8.16309ZM14.8694 45.9153C14.8694 45.9153 13.9896 46.0927 13.9663 46.0967C12.3803 46.1081 10.9447 44.5917 10.4507 42.4035C10.362 42.0022 10.3195 41.5893 10.3195 41.184C10.3195 40.007 10.7325 38.9228 11.377 38.1547H18.3926C18.7708 41.543 17.2927 44.9582 14.8694 45.9153Z" fill="#F4CE73"/>
<path d="M18.6396 46.1004C20.1214 44.3331 21.0514 41.9212 21.0514 39.2778C21.0514 38.4017 20.9548 37.5065 20.758 36.6151C20.4262 35.1372 19.8859 33.7865 19.145 32.5979L10.8599 20.3188C10.281 19.4005 9.84097 18.3045 9.57088 17.0888C9.42201 16.4225 9.34695 15.7418 9.34705 15.059C9.34705 12.0412 10.7789 9.20889 12.9475 8.34823C12.9515 8.34823 13.9471 8.16687 13.9471 8.16687C15.4829 8.20539 16.8875 9.72598 17.366 11.8638C17.7519 13.581 17.2773 15.472 16.2201 16.4521C16.0314 16.6276 15.8999 16.8558 15.8428 17.107C15.7856 17.3582 15.8054 17.6208 15.8996 17.8606C15.9928 18.1009 16.1567 18.3074 16.3696 18.4527C16.5825 18.5981 16.8344 18.6755 17.0922 18.6749H31.6403C31.9762 19.7708 32.3929 20.8087 32.9678 21.7196L39.1056 30.8181C34.7103 32.8334 33.0913 36.3412 33.0913 39.2431C33.0913 39.4592 33.099 39.6754 33.1184 39.8836C33.2901 41.9791 34.3957 44.3476 36.7015 46.1004H18.6396Z" fill="#F4CE73"/>
<path d="M43.1245 45.8882C39.4741 45.564 37.2205 42.5387 36.8809 39.7215C36.576 37.1862 37.6991 33.9872 41.7585 32.6018L42.1754 32.4589L42.2872 33.5472C42.2872 33.5472 37.9421 35.3841 39.8754 38.9729C41.2916 36.7696 42.5921 36.5534 42.5921 36.5534L43.5492 45.9268L43.1245 45.8882ZM44.1087 23.6489L44.5331 23.6914C46.1655 23.8536 46.8794 25.0652 47.0029 26.1419C47.138 27.3729 46.54 28.8664 45.1197 29.3449L44.703 29.4799L44.1087 23.6489ZM46.3509 45.6683L45.3744 36.0672L45.8067 36.1173C47.794 36.3489 49.3802 38.1239 49.6579 40.4394C49.9357 42.7739 48.805 44.7652 46.7753 45.514L46.3509 45.6683Z" fill="#79CCBF"/>
<path d="M31.0308 26.0965H18.6242C18.0781 26.0965 17.6363 25.6548 17.6363 25.1086C17.6363 24.5625 18.0781 24.1207 18.6242 24.1207H31.0308C31.5767 24.1207 32.0187 24.5625 32.0187 25.1086C32.0187 25.6548 31.5767 26.0965 31.0308 26.0965ZM33.6809 30.2663H21.2743C20.7282 30.2663 20.2864 29.8243 20.2864 29.2784C20.2864 28.7322 20.7282 28.2904 21.2743 28.2904H33.6809C34.2268 28.2904 34.6688 28.7322 34.6688 29.2784C34.6688 29.8243 34.2268 30.2663 33.6809 30.2663ZM36.25 32.459H23.8434C23.2973 32.459 22.8555 32.901 22.8555 33.4469C22.8555 33.993 23.2973 34.4348 23.8434 34.4348H34.6474C35.1193 33.7528 35.7 33.0968 36.4235 32.4938C36.3656 32.4831 36.3117 32.459 36.25 32.459Z" fill="white"/>
</svg>
