<svg width="60" height="60" viewBox="0 0 60 60" fill="none" xmlns="http://www.w3.org/2000/svg">
<path d="M11.25 13.75H48.75V17.5H11.25V13.75Z" fill="#424242"/>
<path d="M5 31.25H55V22.5C55 19.75 52.75 17.5 50 17.5H10C7.25 17.5 5 19.75 5 22.5V31.25Z" fill="#616161"/>
<path d="M10 45H50C52.75 45 55 42.75 55 40V30H5V40C5 42.75 7.25 45 10 45Z" fill="#424242"/>
<path d="M48.75 22.5C48.75 22.6642 48.7823 22.8267 48.8452 22.9784C48.908 23.13 49 23.2678 49.1161 23.3839C49.2322 23.5 49.37 23.592 49.5216 23.6549C49.6733 23.7177 49.8358 23.75 50 23.75C50.1642 23.75 50.3267 23.7177 50.4784 23.6549C50.63 23.592 50.7678 23.5 50.8839 23.3839C51 23.2678 51.092 23.13 51.1549 22.9784C51.2177 22.8267 51.25 22.6642 51.25 22.5C51.25 22.3358 51.2177 22.1733 51.1549 22.0216C51.092 21.87 51 21.7322 50.8839 21.6161C50.7678 21.5 50.63 21.408 50.4784 21.3452C50.3267 21.2823 50.1642 21.25 50 21.25C49.8358 21.25 49.6733 21.2823 49.5216 21.3452C49.37 21.408 49.2322 21.5 49.1161 21.6161C49 21.7322 48.908 21.87 48.8452 22.0216C48.7823 22.1733 48.75 22.3358 48.75 22.5Z" fill="#00E676"/>
<path d="M13.75 5H46.25V17.5H13.75V5Z" fill="#90CAF9"/>
<path d="M46.875 38.75H13.125C12.125 38.75 11.25 37.875 11.25 36.875C11.25 35.875 12.125 35 13.125 35H46.875C47.875 35 48.75 35.875 48.75 36.875C48.75 37.875 47.875 38.75 46.875 38.75Z" fill="#242424"/>
<path d="M13.75 38.75H46.25V52.5H13.75V38.75Z" fill="#90CAF9"/>
<path d="M13.75 36.25H46.25V38.75H13.75V36.25Z" fill="#42A5F5"/>
<path d="M20 41.25H41.25V43.75H20V41.25ZM20 46.25H36.25V48.75H20V46.25Z" fill="#1976D2"/>
</svg>
