<svg width="1366" height="80" viewBox="0 0 1366 80" fill="none" xmlns="http://www.w3.org/2000/svg">
<path fill-rule="evenodd" clip-rule="evenodd" d="M0 48H25C51 48 101 48 152 41.3659C202 34.7317 253 21.2683 304 22.6341C354 24 405 40 455 49.3659C506 58.7317 557 61.2683 607 56C658 50.7317 708 37.2683 759 40C809 42.7317 860 61.2683 911 61.2683C961 61.2683 1012 42.7317 1062 29.2683C1113 16 1164 8 1214 17.3659C1265 26.7317 1315 53.2683 1341 66.7317L1366 80V0H1341C1315 0 1265 0 1214 0C1164 0 1113 0 1062 0C1012 0 961 0 911 0C860 0 809 0 759 0C708 0 658 0 607 0C557 0 506 0 455 0C405 0 354 0 304 0C253 0 202 0 152 0C101 0 51 0 25 0H0V48Z" fill="#212929"/>
</svg>
